<svg width="18" height="18" viewBox="0 0 16 16" fill="none" xmlns="http://www.w3.org/2000/svg">
<path d="M4.32812 2C3.96354 2 3.65104 2.13021 3.39062 2.39062C3.13021 2.64062 3 2.95312 3 3.32812C3 3.69271 3.13021 4.00521 3.39062 4.26562C3.65104 4.52604 3.95833 4.65625 4.3125 4.65625C4.67708 4.65625 4.98958 4.52604 5.25 4.26562C5.51042 4.00521 5.64062 3.69271 5.64062 3.32812C5.64062 2.96354 5.51042 2.65104 5.25 2.39062C5 2.13021 4.69271 2 4.32812 2ZM10.7656 5.5C10.2552 5.5 9.8125 5.61979 9.4375 5.85938C9.13542 6.05729 8.89583 6.32292 8.71875 6.65625H8.6875V5.65625H6.5V13H8.78125V9.35938C8.78125 8.96354 8.80208 8.66146 8.84375 8.45312C8.90625 8.14062 9.02083 7.90625 9.1875 7.75C9.38542 7.57292 9.66667 7.48438 10.0312 7.48438C10.3958 7.48438 10.6719 7.58854 10.8594 7.79688C11.0156 7.96354 11.1198 8.21354 11.1719 8.54688C11.2031 8.74479 11.2188 9.03646 11.2188 9.42188V13H13.5V8.96875C13.5 8.22917 13.4323 7.63542 13.2969 7.1875C13.1406 6.64583 12.875 6.23438 12.5 5.95312C12.0833 5.65104 11.5052 5.5 10.7656 5.5ZM3.1875 5.65625V13H5.46875V5.65625H3.1875Z" fill="#F3E5F5"/>
</svg>
